REM DIRINDEX 1\6,1\2\7,1\2\8,1\2\9,1\3\10,1\3\11,1\4\12,1\4\13,1\4\14,1\5\15,1\5\16,1\5\17
REM DIRNAME cjc041,folder01,folder02,folder03,folder04,folder05,folder06,folder07,folder08,folder09,folder10,folder11,folder12,folder13,folder14,folder15,folder16
TITLE ""
FILE "3Q_k_001-012.mp3" MP3
  TRACK 01 AUDIO
    TITLE "6:cjc041_1203"
    INDEX 01 00:00:00
  TRACK 02 AUDIO
    TITLE "0:"
    INDEX 01 00:02:34
  TRACK 03 AUDIO
    TITLE "15:cjc041_1204"
    INDEX 01 00:03:12
  TRACK 04 AUDIO
    TITLE "0:"
    INDEX 01 00:04:64
  TRACK 05 AUDIO
    TITLE "16:cjc041_1205"
    INDEX 01 00:05:46
  TRACK 06 AUDIO
    TITLE "0:"
    INDEX 01 00:07:13
  TRACK 07 AUDIO
    TITLE "17:cjc041_1206"
    INDEX 01 00:07:74
  TRACK 08 AUDIO
    TITLE "17:cjc041_1207"
    INDEX 01 00:11:44
  TRACK 09 AUDIO
    TITLE "0:"
    INDEX 01 00:14:13
  TRACK 10 AUDIO
    TITLE "15:cjc041_1208"
    INDEX 01 00:15:01
  TRACK 11 AUDIO
    TITLE "0:"
    INDEX 01 00:16:65
  TRACK 12 AUDIO
    TITLE "16:cjc041_1209"
    INDEX 01 00:17:47
  TRACK 13 AUDIO
    TITLE "0:"
    INDEX 01 00:19:62
  TRACK 14 AUDIO
    TITLE "17:cjc041_1210"
    INDEX 01 00:20:39
  TRACK 15 AUDIO
    TITLE "17:cjc041_1211"
    INDEX 01 00:22:52
  TRACK 16 AUDIO
    TITLE "0:"
    INDEX 01 00:25:56
  TRACK 17 AUDIO
    TITLE "15:cjc041_1212"
    INDEX 01 00:26:34
  TRACK 18 AUDIO
    TITLE "0:"
    INDEX 01 00:28:25
  TRACK 19 AUDIO
    TITLE "16:cjc041_1213"
    INDEX 01 00:29:11
  TRACK 20 AUDIO
    TITLE "0:"
    INDEX 01 00:31:49
  TRACK 21 AUDIO
    TITLE "17:cjc041_1214"
    INDEX 01 00:32:31
  TRACK 22 AUDIO
    TITLE "17:cjc041_1215"
    INDEX 01 00:35:63
  TRACK 23 AUDIO
    TITLE "0:"
    INDEX 01 00:40:40
  TRACK 24 AUDIO
    TITLE "15:cjc041_1216"
    INDEX 01 00:41:22
  TRACK 25 AUDIO
    TITLE "0:"
    INDEX 01 00:43:25
  TRACK 26 AUDIO
    TITLE "16:cjc041_1217"
    INDEX 01 00:44:05
  TRACK 27 AUDIO
    TITLE "0:"
    INDEX 01 00:47:01
  TRACK 28 AUDIO
    TITLE "17:cjc041_1218"
    INDEX 01 00:47:54
  TRACK 29 AUDIO
    TITLE "17:cjc041_1219"
    INDEX 01 00:51:07
  TRACK 30 AUDIO
    TITLE "0:"
    INDEX 01 00:52:43
  TRACK 31 AUDIO
    TITLE "15:cjc041_1220"
    INDEX 01 00:53:21
  TRACK 32 AUDIO
    TITLE "0:"
    INDEX 01 00:55:40
  TRACK 33 AUDIO
    TITLE "16:cjc041_1221"
    INDEX 01 00:56:20
  TRACK 34 AUDIO
    TITLE "0:"
    INDEX 01 00:59:59
  TRACK 35 AUDIO
    TITLE "17:cjc041_1222"
    INDEX 01 01:00:35
  TRACK 36 AUDIO
    TITLE "17:cjc041_1223"
    INDEX 01 01:05:01
  TRACK 37 AUDIO
    TITLE "0:"
    INDEX 01 01:07:14
  TRACK 38 AUDIO
    TITLE "15:cjc041_1224"
    INDEX 01 01:07:72
  TRACK 39 AUDIO
    TITLE "0:"
    INDEX 01 01:09:22
  TRACK 40 AUDIO
    TITLE "16:cjc041_1225"
    INDEX 01 01:10:02
  TRACK 41 AUDIO
    TITLE "0:"
    INDEX 01 01:11:47
  TRACK 42 AUDIO
    TITLE "17:cjc041_1226"
    INDEX 01 01:12:24
  TRACK 43 AUDIO
    TITLE "17:cjc041_1227"
    INDEX 01 01:15:46
  TRACK 44 AUDIO
    TITLE "0:"
    INDEX 01 01:17:16
  TRACK 45 AUDIO
    TITLE "15:cjc041_1228"
    INDEX 01 01:18:02
  TRACK 46 AUDIO
    TITLE "0:"
    INDEX 01 01:20:00
  TRACK 47 AUDIO
    TITLE "16:cjc041_1229"
    INDEX 01 01:20:55
  TRACK 48 AUDIO
    TITLE "0:"
    INDEX 01 01:21:69
  TRACK 49 AUDIO
    TITLE "17:cjc041_1230"
    INDEX 01 01:22:48
  TRACK 50 AUDIO
    TITLE "17:cjc041_1231"
    INDEX 01 01:25:04
  TRACK 51 AUDIO
    TITLE "0:"
    INDEX 01 01:27:03
  TRACK 52 AUDIO
    TITLE "15:cjc041_1232"
    INDEX 01 01:27:59
  TRACK 53 AUDIO
    TITLE "0:"
    INDEX 01 01:29:41
  TRACK 54 AUDIO
    TITLE "16:cjc041_1233"
    INDEX 01 01:30:22
  TRACK 55 AUDIO
    TITLE "0:"
    INDEX 01 01:32:02
  TRACK 56 AUDIO
    TITLE "17:cjc041_1234"
    INDEX 01 01:32:60
  TRACK 57 AUDIO
    TITLE "17:cjc041_1235"
    INDEX 01 01:37:24
  TRACK 58 AUDIO
    TITLE "0:"
    INDEX 01 01:39:04
  TRACK 59 AUDIO
    TITLE "15:cjc041_1236"
    INDEX 01 01:39:57
  TRACK 60 AUDIO
    TITLE "0:"
    INDEX 01 01:41:22
  TRACK 61 AUDIO
    TITLE "16:cjc041_1237"
    INDEX 01 01:42:10
  TRACK 62 AUDIO
    TITLE "0:"
    INDEX 01 01:43:56
  TRACK 63 AUDIO
    TITLE "17:cjc041_1238"
    INDEX 01 01:44:30
  TRACK 64 AUDIO
    TITLE "17:cjc041_1239"
    INDEX 01 01:49:08
  TRACK 65 AUDIO
    TITLE "0:"
    INDEX 01 01:51:70
  TRACK 66 AUDIO
    TITLE "15:cjc041_1240"
    INDEX 01 01:52:49
  TRACK 67 AUDIO
    TITLE "0:"
    INDEX 01 01:56:22
  TRACK 68 AUDIO
    TITLE "16:cjc041_1241"
    INDEX 01 01:57:06
  TRACK 69 AUDIO
    TITLE "0:"
    INDEX 01 01:58:46
  TRACK 70 AUDIO
    TITLE "17:cjc041_1242"
    INDEX 01 01:59:18
  TRACK 71 AUDIO
    TITLE "17:cjc041_1243"
    INDEX 01 02:02:03
  TRACK 72 AUDIO
    TITLE "0:"
    INDEX 01 02:05:50
  TRACK 73 AUDIO
    TITLE "15:cjc041_1244"
    INDEX 01 02:06:30
  TRACK 74 AUDIO
    TITLE "0:"
    INDEX 01 02:07:55
  TRACK 75 AUDIO
    TITLE "16:cjc041_1245"
    INDEX 01 02:08:37
  TRACK 76 AUDIO
    TITLE "0:"
    INDEX 01 02:09:56
  TRACK 77 AUDIO
    TITLE "17:cjc041_1246"
    INDEX 01 02:10:38
  TRACK 78 AUDIO
    TITLE "17:cjc041_1247"
    INDEX 01 02:13:18
  TRACK 79 AUDIO
    TITLE "0:"
    INDEX 01 02:15:54
  TRACK 80 AUDIO
    TITLE "15:cjc041_1248"
    INDEX 01 02:16:38
  TRACK 81 AUDIO
    TITLE "0:"
    INDEX 01 02:17:73
  TRACK 82 AUDIO
    TITLE "16:cjc041_1249"
    INDEX 01 02:18:53
  TRACK 83 AUDIO
    TITLE "0:"
    INDEX 01 02:20:46
  TRACK 84 AUDIO
    TITLE "17:cjc041_1250"
    INDEX 01 02:21:22
  TRACK 85 AUDIO
    TITLE "17:cjc041_1251"
    INDEX 01 02:25:06
  TRACK 86 AUDIO
    TITLE "0:"
    INDEX 01 02:27:52
